#N canvas 1081 59 358 821 10;
#X obj 66 206 netsend;
#X floatatom 66 228 5 0 0 0 - - -;
#X obj 121 178 sgPrepend send;
#X msg 115 73 disconnect;
#X msg 158 104 get floatVar;
#X msg 176 129 set floatVar 50;
#X msg 50 48 connect localhost \$1;
#X floatatom 225 15 5 0 0 0 - - -;
#X obj 199 39 f 3000;
#X obj 191 16 bng 15 250 50 0 empty empty empty 17 7 0 10 -262144 -1
-1;
#X obj 126 207 netreceive 4000;
#X obj 126 229 print tcp;
#X connect 0 0 1 0;
#X connect 2 0 0 0;
#X connect 3 0 0 0;
#X connect 4 0 2 0;
#X connect 5 0 2 0;
#X connect 6 0 0 0;
#X connect 7 0 8 1;
#X connect 8 0 6 0;
#X connect 9 0 8 0;
#X connect 10 0 11 0;
